<svg xmlns="http://www.w3.org/2000/svg" xmlns:xlink="http://www.w3.org/1999/xlink" width="500" zoomAndPan="magnify" viewBox="0 0 375 37.5" height="50" preserveAspectRatio="xMidYMid meet" version="1.0"><defs><g/></defs><g fill="#ffffff" fill-opacity="1"><g transform="translate(48.231511, 25.442023)"><g><path d="M 15.578125 -0.453125 L 16.875 1.828125 C 16.320312 2.316406 15.664062 2.703125 14.90625 2.984375 C 14.15625 3.265625 13.414062 3.40625 12.6875 3.40625 C 11.6875 3.40625 10.78125 3.117188 9.96875 2.546875 C 9.15625 1.984375 8.507812 1.191406 8.03125 0.171875 C 5.863281 0.0976562 4.066406 -0.640625 2.640625 -2.046875 C 1.210938 -3.453125 0.5 -5.191406 0.5 -7.265625 C 0.5 -9.367188 1.242188 -11.117188 2.734375 -12.515625 C 4.222656 -13.910156 6.082031 -14.609375 8.3125 -14.609375 C 10.5625 -14.609375 12.429688 -13.90625 13.921875 -12.5 C 15.410156 -11.101562 16.15625 -9.359375 16.15625 -7.265625 C 16.15625 -5.671875 15.71875 -4.253906 14.84375 -3.015625 C 13.96875 -1.773438 12.800781 -0.890625 11.34375 -0.359375 C 11.863281 0.304688 12.445312 0.640625 13.09375 0.640625 C 13.800781 0.640625 14.628906 0.273438 15.578125 -0.453125 Z M 5.453125 -10.28125 C 4.660156 -9.46875 4.265625 -8.453125 4.265625 -7.234375 C 4.265625 -6.023438 4.664062 -5.003906 5.46875 -4.171875 C 6.28125 -3.335938 7.242188 -2.921875 8.359375 -2.921875 C 9.472656 -2.921875 10.421875 -3.335938 11.203125 -4.171875 C 11.984375 -5.003906 12.375 -6.023438 12.375 -7.234375 C 12.375 -8.453125 11.984375 -9.46875 11.203125 -10.28125 C 10.421875 -11.101562 9.472656 -11.515625 8.359375 -11.515625 C 7.222656 -11.515625 6.253906 -11.101562 5.453125 -10.28125 Z M 5.453125 -10.28125 "/></g></g></g><g fill="#ffffff" fill-opacity="1"><g transform="translate(71.111812, 25.442023)"><g><path d="M 14.484375 -14.484375 L 14.484375 -6.078125 C 14.484375 -4.160156 13.890625 -2.640625 12.703125 -1.515625 C 11.515625 -0.390625 9.90625 0.171875 7.875 0.171875 C 5.832031 0.171875 4.207031 -0.390625 3 -1.515625 C 1.800781 -2.640625 1.203125 -4.160156 1.203125 -6.078125 L 1.203125 -14.484375 L 4.875 -14.484375 L 4.875 -6.078125 C 4.875 -5.117188 5.15625 -4.351562 5.71875 -3.78125 C 6.28125 -3.207031 7.007812 -2.921875 7.90625 -2.921875 C 8.789062 -2.921875 9.492188 -3.203125 10.015625 -3.765625 C 10.546875 -4.328125 10.8125 -5.097656 10.8125 -6.078125 L 10.8125 -14.484375 Z M 14.484375 -14.484375 "/></g></g></g><g fill="#ffffff" fill-opacity="1"><g transform="translate(92.916449, 25.442023)"><g><path d="M 10.171875 0 L 8.03125 -4.078125 L 5.125 -4.078125 L 5.125 0 L 1.453125 0 L 1.453125 -14.484375 L 7.921875 -14.484375 C 9.835938 -14.484375 11.316406 -14.046875 12.359375 -13.171875 C 13.410156 -12.296875 13.9375 -11.050781 13.9375 -9.4375 C 13.9375 -7.195312 13.0625 -5.644531 11.3125 -4.78125 L 14.359375 0 Z M 5.125 -6.96875 L 7.921875 -6.96875 C 8.722656 -6.96875 9.34375 -7.164062 9.78125 -7.5625 C 10.226562 -7.96875 10.453125 -8.550781 10.453125 -9.3125 C 10.453125 -10.050781 10.226562 -10.613281 9.78125 -11 C 9.34375 -11.382812 8.722656 -11.578125 7.921875 -11.578125 L 5.125 -11.578125 Z M 5.125 -6.96875 "/></g></g></g><g fill="#ffffff" fill-opacity="1"><g transform="translate(114.017753, 25.442023)"><g><path d="M 11.0625 -2.671875 L 4.734375 -2.671875 L 3.6875 0 L -0.109375 0 L 6.140625 -14.484375 L 9.9375 -14.484375 L 16.03125 0 L 12.109375 0 Z M 9.984375 -5.46875 L 7.921875 -10.8125 L 5.8125 -5.46875 Z M 9.984375 -5.46875 "/></g></g></g><g fill="#ffffff" fill-opacity="1"><g transform="translate(136.070621, 25.442023)"><g><path d="M 14.8125 0 L 11.5625 0 L 4.90625 -8.921875 L 4.90625 0 L 1.453125 0 L 1.453125 -14.484375 L 4.703125 -14.484375 L 11.375 -5.546875 L 11.375 -14.484375 L 14.8125 -14.484375 Z M 14.8125 0 "/></g></g></g><g fill="#ffffff" fill-opacity="1"><g transform="translate(158.454459, 25.442023)"><g><path d="M 5.125 0 L 1.453125 0 L 1.453125 -14.484375 L 5.125 -14.484375 Z M 5.125 0 "/></g></g></g><g fill="#ffffff" fill-opacity="1"><g transform="translate(171.157202, 25.442023)"><g><path d="M 8.234375 -14.609375 C 9.304688 -14.609375 10.363281 -14.382812 11.40625 -13.9375 C 12.445312 -13.5 13.332031 -12.910156 14.0625 -12.171875 L 11.9375 -9.640625 C 11.46875 -10.222656 10.90625 -10.679688 10.25 -11.015625 C 9.59375 -11.347656 8.941406 -11.515625 8.296875 -11.515625 C 7.148438 -11.515625 6.191406 -11.113281 5.421875 -10.3125 C 4.648438 -9.507812 4.265625 -8.515625 4.265625 -7.328125 C 4.265625 -6.109375 4.648438 -5.09375 5.421875 -4.28125 C 6.191406 -3.46875 7.148438 -3.0625 8.296875 -3.0625 C 8.898438 -3.0625 9.53125 -3.210938 10.1875 -3.515625 C 10.84375 -3.816406 11.425781 -4.234375 11.9375 -4.765625 L 14.09375 -2.484375 C 13.300781 -1.679688 12.367188 -1.035156 11.296875 -0.546875 C 10.234375 -0.0664062 9.171875 0.171875 8.109375 0.171875 C 5.929688 0.171875 4.117188 -0.535156 2.671875 -1.953125 C 1.222656 -3.378906 0.5 -5.15625 0.5 -7.28125 C 0.5 -9.363281 1.234375 -11.101562 2.703125 -12.5 C 4.179688 -13.90625 6.023438 -14.609375 8.234375 -14.609375 Z M 8.234375 -14.609375 "/></g></g></g><g fill="#ffffff" fill-opacity="1"><g transform="translate(191.596552, 25.442023)"><g/></g></g><g fill="#ffffff" fill-opacity="1"><g transform="translate(202.5203, 25.442023)"><g><path d="M 17.734375 0 L 13.9375 0 L 11.25 -10.015625 L 8.515625 0 L 4.71875 0 L -0.015625 -14.484375 L 3.90625 -14.484375 L 6.75 -3.828125 L 9.515625 -14.484375 L 13.109375 -14.484375 L 15.953125 -3.828125 L 18.75 -14.484375 L 22.515625 -14.484375 Z M 17.734375 0 "/></g></g></g><g fill="#ffffff" fill-opacity="1"><g transform="translate(231.006544, 25.442023)"><g><path d="M 5.125 0 L 1.453125 0 L 1.453125 -14.484375 L 5.125 -14.484375 Z M 5.125 0 "/></g></g></g><g fill="#ffffff" fill-opacity="1"><g transform="translate(243.709288, 25.442023)"><g><path d="M 7.015625 -14.640625 C 9.179688 -14.640625 11.082031 -14.101562 12.71875 -13.03125 L 11.34375 -10.15625 C 10.582031 -10.59375 9.765625 -10.953125 8.890625 -11.234375 C 8.023438 -11.523438 7.296875 -11.671875 6.703125 -11.671875 C 5.640625 -11.671875 5.109375 -11.316406 5.109375 -10.609375 C 5.109375 -10.160156 5.367188 -9.796875 5.890625 -9.515625 C 6.421875 -9.242188 7.0625 -9.003906 7.8125 -8.796875 C 8.5625 -8.597656 9.3125 -8.359375 10.0625 -8.078125 C 10.8125 -7.796875 11.445312 -7.335938 11.96875 -6.703125 C 12.5 -6.066406 12.765625 -5.265625 12.765625 -4.296875 C 12.765625 -2.910156 12.21875 -1.828125 11.125 -1.046875 C 10.039062 -0.265625 8.65625 0.125 6.96875 0.125 C 5.769531 0.125 4.582031 -0.078125 3.40625 -0.484375 C 2.238281 -0.898438 1.222656 -1.46875 0.359375 -2.1875 L 1.78125 -5.03125 C 2.507812 -4.394531 3.367188 -3.875 4.359375 -3.46875 C 5.359375 -3.0625 6.242188 -2.859375 7.015625 -2.859375 C 7.609375 -2.859375 8.066406 -2.960938 8.390625 -3.171875 C 8.722656 -3.390625 8.890625 -3.703125 8.890625 -4.109375 C 8.890625 -4.515625 8.703125 -4.851562 8.328125 -5.125 C 7.953125 -5.394531 7.476562 -5.59375 6.90625 -5.71875 C 6.34375 -5.851562 5.726562 -6.03125 5.0625 -6.25 C 4.40625 -6.46875 3.789062 -6.707031 3.21875 -6.96875 C 2.65625 -7.226562 2.179688 -7.644531 1.796875 -8.21875 C 1.421875 -8.789062 1.234375 -9.476562 1.234375 -10.28125 C 1.234375 -11.601562 1.757812 -12.660156 2.8125 -13.453125 C 3.875 -14.242188 5.273438 -14.640625 7.015625 -14.640625 Z M 7.015625 -14.640625 "/></g></g></g><g fill="#ffffff" fill-opacity="1"><g transform="translate(263.155697, 25.442023)"><g><path d="M 1.453125 -14.484375 L 7.671875 -14.484375 C 9.953125 -14.484375 11.804688 -13.8125 13.234375 -12.46875 C 14.660156 -11.132812 15.375 -9.390625 15.375 -7.234375 C 15.375 -5.097656 14.648438 -3.359375 13.203125 -2.015625 C 11.753906 -0.671875 9.863281 0 7.53125 0 L 1.453125 0 Z M 5.125 -11.546875 L 5.125 -2.9375 L 7.765625 -2.9375 C 8.890625 -2.9375 9.8125 -3.332031 10.53125 -4.125 C 11.257812 -4.914062 11.625 -5.945312 11.625 -7.21875 C 11.625 -8.488281 11.242188 -9.523438 10.484375 -10.328125 C 9.722656 -11.140625 8.757812 -11.546875 7.59375 -11.546875 Z M 5.125 -11.546875 "/></g></g></g><g fill="#ffffff" fill-opacity="1"><g transform="translate(285.146507, 25.442023)"><g><path d="M 8.3125 -14.609375 C 10.5625 -14.609375 12.429688 -13.90625 13.921875 -12.5 C 15.410156 -11.101562 16.15625 -9.359375 16.15625 -7.265625 C 16.15625 -5.148438 15.40625 -3.378906 13.90625 -1.953125 C 12.414062 -0.535156 10.550781 0.171875 8.3125 0.171875 C 6.082031 0.171875 4.222656 -0.535156 2.734375 -1.953125 C 1.242188 -3.367188 0.5 -5.140625 0.5 -7.265625 C 0.5 -9.367188 1.242188 -11.117188 2.734375 -12.515625 C 4.222656 -13.910156 6.082031 -14.609375 8.3125 -14.609375 Z M 8.359375 -11.515625 C 7.222656 -11.515625 6.253906 -11.101562 5.453125 -10.28125 C 4.660156 -9.46875 4.265625 -8.453125 4.265625 -7.234375 C 4.265625 -6.023438 4.664062 -5.003906 5.46875 -4.171875 C 6.28125 -3.335938 7.242188 -2.921875 8.359375 -2.921875 C 9.472656 -2.921875 10.421875 -3.335938 11.203125 -4.171875 C 11.984375 -5.003906 12.375 -6.023438 12.375 -7.234375 C 12.375 -8.453125 11.984375 -9.46875 11.203125 -10.28125 C 10.421875 -11.101562 9.472656 -11.515625 8.359375 -11.515625 Z M 8.359375 -11.515625 "/></g></g></g><g fill="#ffffff" fill-opacity="1"><g transform="translate(307.923374, 25.442023)"><g><path d="M 17.359375 0 L 14.109375 0 L 14.09375 -9.40625 L 10.609375 -1.453125 L 8.21875 -1.453125 L 4.734375 -9.40625 L 4.734375 0 L 1.453125 0 L 1.453125 -14.5 L 5.484375 -14.5 L 9.40625 -5.875 L 13.34375 -14.5 L 17.359375 -14.5 Z M 17.359375 0 "/></g></g></g></svg>