<svg xmlns="http://www.w3.org/2000/svg" xmlns:xlink="http://www.w3.org/1999/xlink" width="500" zoomAndPan="magnify" viewBox="0 0 375 374.999991" height="500" preserveAspectRatio="xMidYMid meet" version="1.0"><defs><g/></defs><g fill="#ffffff" fill-opacity="1"><g transform="translate(43.576638, 285.814615)"><g><path d="M 100.1875 -51.25 C 95.96875 -51.03125 92.023438 -50.476562 88.359375 -49.59375 C 84.703125 -48.707031 81.097656 -47.707031 77.546875 -46.59375 C 85.984375 -35.28125 95.691406 -27.015625 106.671875 -21.796875 C 117.648438 -16.585938 129.46875 -13.984375 142.125 -13.984375 C 145.664062 -13.984375 148.710938 -14.203125 151.265625 -14.640625 C 153.816406 -15.085938 155.984375 -15.53125 157.765625 -15.96875 C 154.878906 -19.300781 151.382812 -23.019531 147.28125 -27.125 C 143.175781 -31.226562 138.625 -35.054688 133.625 -38.609375 C 128.632812 -42.160156 123.3125 -45.15625 117.65625 -47.59375 C 112 -50.03125 106.175781 -51.25 100.1875 -51.25 Z M 122.484375 -204.03125 C 118.265625 -204.03125 113.769531 -203.53125 109 -202.53125 C 104.226562 -201.53125 99.507812 -199.921875 94.84375 -197.703125 C 90.1875 -195.484375 85.582031 -192.488281 81.03125 -188.71875 C 76.488281 -184.945312 72.441406 -180.394531 68.890625 -175.0625 C 64.453125 -168.632812 61.015625 -161.035156 58.578125 -152.265625 C 56.140625 -143.503906 54.921875 -132.800781 54.921875 -120.15625 C 54.921875 -107.0625 56.640625 -94.410156 60.078125 -82.203125 C 63.515625 -70.003906 68.671875 -58.910156 75.546875 -48.921875 C 84.867188 -53.804688 93.023438 -57.078125 100.015625 -58.734375 C 107.003906 -60.398438 113.269531 -61.234375 118.8125 -61.234375 C 131.019531 -61.234375 142.445312 -58.457031 153.09375 -52.90625 C 163.75 -47.363281 173.738281 -39.378906 183.0625 -28.953125 C 193.039062 -38.273438 200.140625 -48.316406 204.359375 -59.078125 C 208.578125 -69.835938 210.6875 -82.207031 210.6875 -96.1875 C 210.6875 -110.832031 208.078125 -125.640625 202.859375 -140.609375 C 197.640625 -155.585938 190.039062 -168.40625 180.0625 -179.0625 C 172.957031 -186.820312 164.523438 -192.921875 154.765625 -197.359375 C 145.003906 -201.804688 134.242188 -204.03125 122.484375 -204.03125 Z M 14.984375 -109.828125 C 14.984375 -126.472656 18.03125 -141.726562 24.125 -155.59375 C 30.226562 -169.46875 38.601562 -181.394531 49.25 -191.375 C 59.90625 -201.363281 72.390625 -209.1875 86.703125 -214.84375 C 101.015625 -220.5 116.269531 -223.328125 132.46875 -223.328125 C 148.882812 -223.328125 164.300781 -220.441406 178.71875 -214.671875 C 193.144531 -208.898438 205.679688 -200.910156 216.328125 -190.703125 C 226.984375 -180.503906 235.363281 -168.300781 241.46875 -154.09375 C 247.570312 -139.894531 250.625 -124.476562 250.625 -107.84375 C 250.625 -86.976562 245.796875 -68.503906 236.140625 -52.421875 C 226.484375 -36.335938 213.445312 -23.300781 197.03125 -13.3125 C 202.132812 -8.207031 207.90625 -3.4375 214.34375 1 C 220.78125 5.4375 228.210938 7.65625 236.640625 7.65625 C 243.296875 7.65625 248.953125 5.546875 253.609375 1.328125 C 258.273438 -2.890625 260.609375 -8.210938 260.609375 -14.640625 C 260.609375 -15.753906 260.492188 -17.085938 260.265625 -18.640625 C 260.046875 -20.191406 259.710938 -21.519531 259.265625 -22.625 L 261.9375 -23.625 C 263.488281 -20.082031 264.539062 -16.867188 265.09375 -13.984375 C 265.644531 -11.097656 265.921875 -8.101562 265.921875 -5 C 265.921875 6.988281 262.09375 16.863281 254.4375 24.625 C 246.789062 32.394531 236.972656 36.28125 224.984375 36.28125 C 219.222656 36.28125 213.734375 35.113281 208.515625 32.78125 C 203.296875 30.445312 198.410156 27.453125 193.859375 23.796875 C 189.316406 20.140625 184.992188 16.035156 180.890625 11.484375 C 176.785156 6.929688 172.957031 2.4375 169.40625 -2 C 164.96875 -0.21875 159.804688 1.28125 153.921875 2.5 C 148.046875 3.71875 141.226562 4.328125 133.46875 4.328125 C 113.71875 4.328125 96.460938 1 81.703125 -5.65625 C 66.953125 -12.3125 54.640625 -21.019531 44.765625 -31.78125 C 34.890625 -42.539062 27.457031 -54.742188 22.46875 -68.390625 C 17.476562 -82.035156 14.984375 -95.847656 14.984375 -109.828125 Z M 14.984375 -109.828125 "/></g></g></g></svg>