<svg xmlns="http://www.w3.org/2000/svg" xmlns:xlink="http://www.w3.org/1999/xlink" width="500" zoomAndPan="magnify" viewBox="0 0 375 374.999991" height="500" preserveAspectRatio="xMidYMid meet" version="1.0"><defs><clipPath id="62662e91d3"><path d="M 107 45.613281 L 226 45.613281 L 226 165 L 107 165 Z M 107 45.613281 " clip-rule="nonzero"/></clipPath><clipPath id="4de50c676f"><path d="M 63 171 L 270 171 L 270 323.863281 L 63 323.863281 Z M 63 171 " clip-rule="nonzero"/></clipPath></defs><g clip-path="url(#62662e91d3)"><path fill="#545454" d="M 225.851562 105.011719 C 225.851562 72.261719 199.203125 45.613281 166.542969 45.613281 C 133.792969 45.613281 107.140625 72.261719 107.140625 105.011719 C 107.140625 137.671875 133.792969 164.324219 166.542969 164.324219 C 199.203125 164.324219 225.851562 137.671875 225.851562 105.011719 Z M 225.851562 105.011719 " fill-opacity="1" fill-rule="nonzero"/></g><g clip-path="url(#4de50c676f)"><path fill="#545454" d="M 166.542969 171.230469 C 109.566406 171.230469 63.355469 217.53125 63.355469 274.417969 L 63.355469 292.363281 C 63.355469 309.683594 77.441406 323.769531 94.757812 323.769531 L 238.324219 323.769531 C 255.550781 323.769531 269.730469 309.683594 269.730469 292.363281 L 269.730469 274.417969 C 269.730469 217.53125 223.429688 171.230469 166.542969 171.230469 Z M 166.542969 171.230469 " fill-opacity="1" fill-rule="nonzero"/></g><path fill="#545454" d="M 304.402344 114.257812 L 271.0625 147.597656 L 258.820312 135.367188 C 253.5625 130.109375 245.046875 130.109375 239.789062 135.367188 C 234.53125 140.625 234.53125 149.148438 239.789062 154.398438 L 261.546875 176.148438 C 264.175781 178.777344 267.617188 180.089844 271.0625 180.089844 C 274.503906 180.089844 277.949219 178.777344 280.578125 176.148438 L 323.433594 133.289062 C 328.691406 128.03125 328.691406 119.515625 323.433594 114.257812 C 318.175781 109 309.660156 109 304.402344 114.257812 Z M 304.402344 114.257812 " fill-opacity="1" fill-rule="nonzero"/></svg>